<?xml version="1.0" encoding="UTF-8"?>
<svg version="1.1" xmlns="http://www.w3.org/2000/svg" width="1024" height="1024">
<path d="M0 0 C337.92 0 675.84 0 1024 0 C1024 337.92 1024 675.84 1024 1024 C686.08 1024 348.16 1024 0 1024 C0 686.08 0 348.16 0 0 Z " fill="#5028D4" transform="translate(0,0)"/>
<path d="M0 0 C337.92 0 675.84 0 1024 0 C1024 337.92 1024 675.84 1024 1024 C686.08 1024 348.16 1024 0 1024 C0 686.08 0 348.16 0 0 Z M216.703125 197.515625 C214.48155911 199.55741099 212.23180982 201.54144283 209.9375 203.5 C202.69858214 209.78880989 195.94529612 216.70160763 189.7265625 223.99609375 C187.78258954 226.25233386 185.76676482 228.43363893 183.75 230.625 C178.6895018 236.24206738 174.03746573 242.13584011 169.43701172 248.13037109 C168.48959514 249.3630106 167.53817916 250.59258789 166.58251953 251.81884766 C149.1685864 274.17061422 134.17691816 298.52903156 121.92675781 324.07714844 C120.99522099 326.00991557 120.04195692 327.93080616 119.0859375 329.8515625 C96.19016098 376.43973955 83.69611272 428.34295155 80 480 C79.94360352 480.72123047 79.88720703 481.44246094 79.82910156 482.18554688 C77.32336486 514.71564347 79.11191177 547.77289394 84 580 C84.09756592 580.64653534 84.19513184 581.29307068 84.2956543 581.959198 C86.02498285 593.2694024 88.30930142 604.34966701 91.125 615.4375 C91.32041382 616.21136047 91.51582764 616.98522095 91.71716309 617.78253174 C104.76657412 669.19563423 127.88059185 719.60710469 160 762 C160.95928334 763.28835569 161.91753631 764.57747893 162.875 765.8671875 C176.03522726 783.56162816 189.89756398 800.25721229 205.5456543 815.80639648 C207.57122482 817.82117835 209.58578384 819.84653275 211.59960938 821.87304688 C218.76459754 829.04532026 226.02857194 835.72570919 234 842 C235.1023538 842.93415961 236.19865769 843.87557109 237.28515625 844.828125 C310.80504726 908.93829719 412.79939832 942.0556388 509.375 942.3125 C510.80048157 942.31642761 510.80048157 942.31642761 512.25476074 942.32043457 C532.67344642 942.3263858 552.76701783 940.65905742 573 938 C574.17916992 937.84515137 575.35833984 937.69030273 576.57324219 937.53076172 C620.1713353 931.52388377 662.33591765 917.84822764 702 899 C702.80276367 898.62053223 703.60552734 898.24106445 704.43261719 897.85009766 C731.24962335 885.07883036 757.38826269 869.30775717 780.32080078 850.37597656 C782.15493417 848.87304318 784.01101071 847.4003657 785.87109375 845.9296875 C805.32675821 830.47517588 824.91124722 812.9971514 840.15625 793.3359375 C842.05543148 790.92977113 844.0861453 788.73078597 846.1875 786.5 C864.78007193 765.9774033 879.83936901 741.25501167 893 717 C893.7417749 715.64189209 893.7417749 715.64189209 894.49853516 714.25634766 C911.70552683 682.5877495 923.62680214 649.74430236 933 615 C933.21495117 614.21963379 933.42990234 613.43926758 933.65136719 612.63525391 C939.68410367 590.49942764 942.50345809 566.84690781 944 544 C944.05639648 543.17709473 944.11279297 542.35418945 944.17089844 541.50634766 C945.71623736 518.2211076 944.91843853 495.24393825 943 472 C942.92523437 471.06526855 942.85046875 470.13053711 942.7734375 469.16748047 C935.59777899 381.4815979 898.81050632 294.63946189 839.3359375 229.58203125 C838.07459517 228.18780503 836.81907332 226.78768873 835.59960938 225.35668945 C830.47729223 219.36535222 824.96555524 213.77942331 819.39501953 208.2097168 C817.76172552 206.57424118 816.1366153 204.93092292 814.51171875 203.28710938 C807.98420426 196.72503323 801.25316092 190.76087308 794 185 C792.90991991 184.07691922 791.82529516 183.14729347 790.75 182.20703125 C737.15490696 135.53971302 667.36998867 104.44589424 598 91 C597.12617676 90.8251709 596.25235352 90.6503418 595.35205078 90.47021484 C588.5934804 89.1310515 581.81272654 88.02515314 575 87 C573.82163574 86.81518066 572.64327148 86.63036133 571.42919922 86.43994141 C550.66636399 83.29583211 530.04966562 82.60164897 509.0625 82.5625 C507.83688354 82.55641724 506.61126709 82.55033447 505.34851074 82.54406738 C406.41817399 82.22281123 309.39552658 119.4731816 216.703125 197.515625 Z " fill="#FDFDFD" transform="translate(0,0)"/>
<path d="M0 0 C1.83046483 0.22095101 3.66118308 0.43981606 5.4921875 0.65625 C46.8002843 5.7750984 87.50332902 18.04840141 125 36 C125.80421387 36.38091797 126.60842773 36.76183594 127.43701172 37.15429688 C145.37479986 45.69508568 162.72679092 55.58583363 179 67 C179.53463867 67.37157227 180.06927734 67.74314453 180.62011719 68.12597656 C210.53288915 88.94744503 238.26712801 113.44813347 261 142 C261.90745785 143.10531451 262.81639287 144.20941742 263.7265625 145.3125 C309.12937983 200.6562087 335.81180285 267.56272712 346 338 C346.16516113 339.06395996 346.33032227 340.12791992 346.50048828 341.22412109 C351.84399339 376.30779632 350.82706873 413.89447754 346 449 C345.75056641 450.8574585 345.75056641 450.8574585 345.49609375 452.75244141 C340.28250107 490.30479093 329.13976061 526.72994611 313 561 C312.56461914 561.93118652 312.12923828 562.86237305 311.68066406 563.82177734 C301.51333497 585.38431839 289.26261287 605.89671469 275 625 C274.47164551 625.71091797 273.94329102 626.42183594 273.39892578 627.15429688 C263.56031994 640.34252602 253.09657997 652.85099897 242 665 C241.13246094 665.97195313 240.26492188 666.94390625 239.37109375 667.9453125 C227.9613611 680.64037032 215.53710277 692.58815057 202 703 C201.29536621 703.54479004 200.59073242 704.08958008 199.86474609 704.65087891 C182.71123015 717.86994106 164.92513929 729.48401569 146 740 C145.14760742 740.47550293 144.29521484 740.95100586 143.41699219 741.44091797 C68.32021467 782.9563696 -22.39446858 798.80972468 -160.875 776.1875 C-195.18075655 766.06047926 -230.15776555 752.07114196 -260.15420437 732.32901859 C-263.98840423 729.81858286 -267.79455872 727.57321826 -271.92959595 725.59239197 C-278.11788257 722.3932065 -284.45046464 719.02665065 -287.06389618 712.23534012 C-288.73739577 704.00877481 -288.2552091 695.65779564 -287.9609375 687.31640625 C-287.9227116 684.61088854 -287.9124323 681.90543775 -287.90103149 679.19969177 C-287.86256188 673.54313341 -287.75542287 667.89151505 -287.59814453 662.23706055 C-287.37768603 654.30743399 -287.28224251 646.37995179 -287.21182704 638.44777215 C-287.15226664 632.23700921 -287.05995902 626.02664942 -286.9609375 619.81640625 C-286.94014507 618.51144258 -286.91935265 617.20647892 -286.89793015 615.8619709 C-286.38322786 587.78622662 -282.14971016 566.02598888 -262.5 545.125 C-243.46935188 527.19821778 -219.90778663 522.15216215 -194.67578125 522.51171875 C-192.70754406 522.52107627 -190.73929501 522.52817841 -188.77104187 522.53315735 C-183.65980285 522.55199634 -178.54930586 522.60088961 -173.43835449 522.65667725 C-168.19533315 522.7083765 -162.95218864 522.73077816 -157.70898438 522.75585938 C-147.47233516 522.80903753 -137.23622993 522.89405976 -127 523 C-126.99120064 524.3251915 -126.99120064 524.3251915 -126.98222351 525.67715454 C-126.92397643 534.06116732 -126.85172063 542.44492272 -126.76428509 550.82868385 C-126.71982801 555.13739729 -126.68051991 559.44602152 -126.65356445 563.75488281 C-126.62728238 567.92425463 -126.58671091 572.09327844 -126.53681374 576.2624321 C-126.52031136 577.84173582 -126.50869481 579.4210995 -126.50238609 581.00047684 C-126.41528537 600.82780879 -122.33576955 619.04783368 -108.890625 634.41015625 C-97.10503473 645.93867828 -81.36982982 651.74317927 -65.15234375 652.56640625 C-63.97375793 652.63075867 -63.97375793 652.63075867 -62.7713623 652.69641113 C-60.84775432 652.80096299 -58.9238989 652.9009454 -57 653 C-56.99635437 653.58802399 -56.99270874 654.17604797 -56.98895264 654.78189087 C-56.94707028 660.91440031 -56.87768453 667.04616533 -56.79248047 673.17822266 C-56.76429348 675.46525621 -56.74306769 677.75238677 -56.72900391 680.03955078 C-56.70754362 683.33155906 -56.66087529 686.62240378 -56.609375 689.9140625 C-56.60753204 691.44252304 -56.60753204 691.44252304 -56.60565186 693.00186157 C-56.48619049 698.82111886 -56.00410799 702.45037075 -52 707 C-47.51008024 710.34543041 -43.99483745 711.75180888 -38.3671875 711.4296875 C-28.72864921 709.68011784 -21.17570024 702.47240947 -13.81445312 696.46728516 C-11.48239866 694.58143379 -9.11221413 692.74760629 -6.74047852 690.91210938 C-0.6929481 686.2227072 5.17045995 681.35473249 10.9543457 676.34448242 C15.29415498 672.58665631 19.71182495 668.94285009 24.20915508 665.37387276 C27.03030519 663.06615082 27.03030519 663.06615082 29.40276051 660.42616081 C34.24223288 655.34262704 37.82244919 652.38969206 44.94767761 651.78640747 C47.59717262 651.75203289 50.21077665 651.77015221 52.85620117 651.83642578 C54.31953713 651.83593132 55.78287725 651.83096519 57.2461853 651.82191467 C60.37788666 651.81204318 63.50720224 651.83336072 66.63857079 651.87976456 C71.60510052 651.95319638 76.57020845 651.95573935 81.53718567 651.94967651 C89.40536364 651.9483948 97.27243859 651.9943966 105.14031154 652.06059444 C119.19930542 652.17784169 133.25853277 652.22408928 147.31798154 652.23868358 C152.2388331 652.24577687 157.15878323 652.27636247 162.0793699 652.32730412 C165.16119552 652.3557411 168.24294739 652.36760436 171.32488632 652.37589836 C172.73566901 652.3832439 174.14643867 652.3974255 175.55706596 652.41961479 C194.09359748 652.70293953 210.02853184 648.22023939 223.78637695 635.37841797 C235.69921618 623.67932351 242.06005089 607.57506732 242.26742554 591.01983643 C242.29269446 587.77778969 242.29269199 584.5360729 242.29052734 581.29394531 C242.29651873 579.50092287 242.30332567 577.707903 242.31088257 575.91488647 C242.32848805 571.0634477 242.33323565 566.21207956 242.33451414 561.36061192 C242.33593943 558.324006 242.34021619 555.28741784 242.34550858 552.25081635 C242.36399108 541.64115771 242.37218145 531.0315492 242.37060547 520.421875 C242.36940468 510.55788787 242.39049939 500.69411977 242.4220928 490.83018804 C242.44831021 482.33984202 242.45897047 473.84956731 242.45769465 465.35918117 C242.45718661 460.29786004 242.46278212 455.23673371 242.48405075 450.17545319 C242.50352536 445.41138887 242.50349498 440.64770332 242.48901749 435.88362503 C242.48693966 434.14428524 242.49156842 432.40492116 242.5037384 430.66562271 C242.63289386 410.91346674 237.21058244 395.81499187 223.48828125 381.43359375 C221.05304625 378.90160185 221.05304625 378.90160185 218 377 C218.99797522 374.93936599 220.03015238 372.95032588 221.21875 370.9921875 C221.6415625 370.29351562 222.064375 369.59484375 222.5 368.875 C222.9228125 368.19179688 223.345625 367.50859375 223.78125 366.8046875 C227.46677896 358.32324585 227.31972406 349.15917491 227.3359375 340.06640625 C227.3425943 338.75268539 227.3492511 337.43896454 227.35610962 336.08543396 C227.36800349 333.31953642 227.37179845 330.55376306 227.37060547 327.7878418 C227.37040221 324.27341504 227.39774641 320.75979617 227.43214989 317.24556065 C227.45994785 313.85249963 227.45857217 310.45957926 227.4609375 307.06640625 C227.48249405 305.19717247 227.48249405 305.19717247 227.50448608 303.29017639 C227.44577582 291.95357109 224.59410587 281.67663501 217 273 C207.83725758 264.60220522 196.19390868 261.55051506 184 261 C183.72027344 259.97003906 183.44054687 258.94007813 183.15234375 257.87890625 C177.23508932 236.62416864 168.88993146 217.56178341 154 201 C153.32710937 200.24460937 152.65421875 199.48921875 151.9609375 198.7109375 C131.0855891 176.5846319 101.02851034 164.8627524 70.95108032 163.70352173 C64.109926 163.52612832 57.26886657 163.50583499 50.42578125 163.48828125 C47.91944014 163.47139633 45.41310729 163.45324111 42.90678406 163.43388367 C36.37550442 163.38679136 29.84425832 163.35671994 23.31286621 163.33044434 C16.62191875 163.30200878 9.93108655 163.25397306 3.24023438 163.20898438 C-9.83979607 163.12341613 -22.91981555 163.05739009 -36 163 C-36 148.81 -36 134.62 -36 120 C-32.04 118.02 -32.04 118.02 -28 116 C-20.0017046 110.74983687 -14.32717657 102.18786602 -11.5625 93.0625 C-9.18703736 80.36697188 -11.45318056 69.04575397 -18.34375 58.25390625 C-24.26222211 50.19975906 -33.51865257 45.64215107 -43 43 C-56.3167615 41.77906025 -67.86480932 43.72482343 -78.74609375 51.96875 C-86.94983097 59.36206604 -91.0633302 69.0383067 -92.34375 79.921875 C-92.70793267 90.66526391 -89.06721481 100.8356427 -82.25 109.12890625 C-78.37166866 113.29788254 -78.37166866 113.29788254 -73.41333008 115.93334961 C-70.02623144 117.1747749 -68.32942408 118.20678461 -66 121 C-64.22155624 127.87226818 -65.0701189 135.35813269 -65.375 142.375 C-65.42518287 144.37098317 -65.47080641 146.36708654 -65.51171875 148.36328125 C-65.62170939 153.24515768 -65.79410612 158.12126541 -66 163 C-66.86413041 163.00358253 -66.86413041 163.00358253 -67.745718 163.00723743 C-81.84719202 163.06670765 -95.94850293 163.14245753 -110.04979515 163.23571491 C-116.86944393 163.28043458 -123.68904326 163.31990203 -130.50878906 163.34643555 C-137.10306376 163.37210728 -143.69714339 163.41316869 -150.29127884 163.46318626 C-152.79393343 163.47973692 -155.29662644 163.49132401 -157.79932785 163.49761391 C-174.86866673 163.54481051 -191.85777762 163.8812592 -208.125 169.6875 C-209.22255615 170.06878052 -209.22255615 170.06878052 -210.34228516 170.45776367 C-223.17118514 175.07345986 -234.49976188 181.24247922 -245 190 C-245.93457031 190.77085937 -246.86914062 191.54171875 -247.83203125 192.3359375 C-267.06021088 208.95553891 -278.93107112 232.47093895 -284.30859375 257.0703125 C-285 260 -285 260 -286 261 C-287.72151848 261.17575158 -289.4436558 261.34686991 -291.16796875 261.49267578 C-302.72804225 262.54287372 -312.24608383 266.05553126 -320.3125 274.77734375 C-325.36323552 281.42981715 -328.10898565 288.2750905 -328.17700195 296.59179688 C-328.18357315 297.25731567 -328.19014435 297.92283447 -328.19691467 298.60852051 C-328.21662647 300.81193159 -328.22831051 303.01527431 -328.23828125 305.21875 C-328.24235678 305.97454849 -328.2464323 306.73034698 -328.25063133 307.50904846 C-328.27149118 311.51579514 -328.28578866 315.52250766 -328.29516602 319.52929688 C-328.30618135 323.64357528 -328.34052403 327.75730548 -328.38033772 331.8713913 C-328.40665363 335.05441197 -328.4148714 338.23730556 -328.41844749 341.42042542 C-328.42328134 342.93530444 -328.43480257 344.45017903 -328.45348549 345.96495056 C-328.58831874 357.62965524 -327.34803608 367.89350351 -319.76171875 377.21875 C-310.05160262 387.03651708 -299.14672151 388.50357432 -286 389 C-284.95904895 392.60581693 -283.94504861 396.20936905 -282.9921875 399.83984375 C-277.27539561 421.15849736 -266.33823965 439.25998828 -251 455 C-250.44183594 455.63164063 -249.88367188 456.26328125 -249.30859375 456.9140625 C-232.89009395 475.00441998 -207.10616005 484.69062561 -184 490 C-184 490.33 -184 490.66 -184 491 C-184.97888184 491.02187378 -184.97888184 491.02187378 -185.97753906 491.04418945 C-217.89379108 491.83510883 -250.58224473 495.65402106 -276 517 C-276.85851562 517.72058594 -277.71703125 518.44117188 -278.6015625 519.18359375 C-300.90047447 538.61935237 -312.96444011 564.8383389 -316 594 C-316.50903728 601.60872275 -316.48853025 609.23304949 -316.51171875 616.85546875 C-316.52861371 618.98066714 -316.54677017 621.10585583 -316.56611633 623.23103333 C-316.6131003 628.75618454 -316.64324049 634.28129646 -316.66955566 639.80657959 C-316.69962528 645.4720435 -316.74606301 651.13737247 -316.79101562 656.80273438 C-316.87645965 667.86841823 -316.94406303 678.93413032 -317 690 C-318.28031682 689.05038836 -319.55917466 688.09880946 -320.8374176 687.14640808 C-321.90589857 686.35186108 -321.90589857 686.35186108 -322.995965 685.54126263 C-325.44811644 683.65536274 -327.64977754 681.60915951 -329.83984375 679.42578125 C-330.67088623 678.59868652 -331.50192871 677.7715918 -332.3581543 676.91943359 C-333.20933838 676.05914551 -334.06052246 675.19885742 -334.9375 674.3125 C-335.8241333 673.42127441 -336.7107666 672.53004883 -337.62426758 671.61181641 C-342.77403283 666.39017625 -347.6541513 661.13863809 -352.15234375 655.34375 C-354.07751971 652.90166633 -356.1306162 650.64983055 -358.25 648.375 C-420.47584818 579.59340615 -451.28545194 484.4843907 -451.1875 393 C-451.18689575 391.95653412 -451.1862915 390.91306824 -451.18566895 389.83798218 C-451.16200386 374.78771075 -450.90009378 359.94723013 -449 345 C-448.87641113 343.94570801 -448.75282227 342.89141602 -448.62548828 341.80517578 C-440.61379917 274.28363109 -414.41091571 207.4563033 -372 154 C-371.36191406 153.18273437 -370.72382813 152.36546875 -370.06640625 151.5234375 C-354.14106107 131.33638023 -336.68837544 111.60422191 -317 95 C-316.03449219 94.14535156 -315.06898438 93.29070312 -314.07421875 92.41015625 C-304.50680845 83.97507609 -294.39757597 76.37965466 -284 69 C-283.04770508 68.32372559 -283.04770508 68.32372559 -282.07617188 67.63378906 C-261.18616973 52.94658119 -238.34500516 40.32853161 -214.9375 30.125 C-214.25668365 29.82729706 -213.57586731 29.52959412 -212.87442017 29.22286987 C-146.24575583 0.24153392 -71.94971228 -9.75117107 0 0 Z " fill="#FDFDFD" transform="translate(563,119)"/>
<path d="M0 0 C2.55234141 -0.00734827 5.1046795 -0.0159367 7.65701294 -0.02566528 C13.84662136 -0.04551749 20.03609791 -0.05126613 26.22573383 -0.0494774 C31.2638875 -0.04816418 36.30201216 -0.05200229 41.34016037 -0.05940247 C42.7974238 -0.06150192 44.25468723 -0.06359952 45.71195066 -0.06569529 C46.80032344 -0.06726058 46.80032344 -0.06726058 47.91068356 -0.06885749 C61.60293022 -0.08771846 75.29512319 -0.08672274 88.98737745 -0.07988816 C101.4735954 -0.07431876 113.95960778 -0.09511977 126.44577773 -0.12824863 C139.30696977 -0.16210404 152.16806368 -0.17713909 165.02930105 -0.1725316 C172.23362607 -0.17029845 179.43776127 -0.17535904 186.64204788 -0.20042419 C193.42368325 -0.22382034 200.20482433 -0.22071172 206.98649216 -0.20049667 C209.46186407 -0.19710799 211.9372653 -0.20208209 214.41259766 -0.21648026 C239.46868747 -0.35205539 262.77036715 3.89177206 281.77490234 21.41992188 C282.68884766 22.24234375 283.60279297 23.06476563 284.54443359 23.91210938 C300.52288177 38.99436552 310.76359407 61.56067624 311.88599968 83.60156059 C312.05533997 89.75363716 312.00460445 95.90692772 311.97021484 102.06054688 C311.96647767 104.03879655 311.96363403 106.01704809 311.9616394 107.99530029 C311.95405837 113.16389208 311.93445831 118.33236875 311.91223145 123.50091553 C311.89165293 128.79030806 311.88261218 134.07971947 311.87255859 139.36914062 C311.85120644 149.7194512 311.81713847 160.06967691 311.77490234 170.41992188 C310.00710907 170.42212172 310.00710907 170.42212172 308.20360279 170.424366 C280.18722075 170.46011765 252.17093423 170.51643032 224.15464719 170.59784283 C220.70148722 170.60785951 217.24832678 170.61770377 213.79516602 170.62744141 C212.76403305 170.63035347 212.76403305 170.63035347 211.71206912 170.63332435 C200.60166402 170.66429108 189.49127954 170.68131009 178.38083944 170.6931161 C166.96871648 170.70555535 155.55672581 170.73341391 144.14466542 170.77453494 C137.739624 170.79713052 131.33473607 170.81283368 124.92965126 170.81180573 C118.89430378 170.81105801 112.85929537 170.8290542 106.82403564 170.86108971 C104.61547073 170.86957043 102.40686771 170.87135114 100.19829369 170.86572456 C80.23462783 170.82166081 64.10060541 173.773565 49.05615234 188.08007812 C37.17215122 200.269319 31.59012544 214.38810021 31.36083984 231.26757812 C31.34147369 232.16488144 31.32210754 233.06218475 31.30215454 233.98667908 C31.24295529 236.81850034 31.19621485 239.65036359 31.14990234 242.48242188 C31.11166751 244.4166832 31.07261269 246.35092851 31.03271484 248.28515625 C30.93730377 252.99661276 30.85305595 257.70814879 30.77490234 262.41992188 C23.80481753 262.52252577 16.83493198 262.59188446 9.86425781 262.63964844 C7.49992598 262.65958975 5.13564232 262.68675275 2.77148438 262.72167969 C-26.44896312 263.14211778 -49.94338964 256.83214603 -71.54150391 236.06445312 C-72.42708984 235.19175781 -73.31267578 234.3190625 -74.22509766 233.41992188 C-75.22863281 232.43572266 -75.22863281 232.43572266 -76.25244141 231.43164062 C-91.24564275 215.55448637 -98.35856931 192.290723 -98.38623047 170.89892578 C-98.39119537 169.96936066 -98.39616028 169.03979553 -98.40127563 168.08206177 C-98.41582439 165.02019494 -98.42268946 161.95838003 -98.42822266 158.89648438 C-98.43105003 157.84293133 -98.43387741 156.78937828 -98.43679047 155.70389938 C-98.45175881 150.1211192 -98.46100132 144.53836466 -98.46533203 138.95556641 C-98.47079251 133.23237571 -98.494776 127.50942582 -98.52330399 121.7863102 C-98.54207985 117.34890089 -98.547144 112.91154766 -98.54866791 108.47410202 C-98.55166474 106.36691354 -98.55959068 104.25972532 -98.57285309 102.15257645 C-98.74594833 72.51991138 -93.06590352 45.72025959 -71.66259766 23.79492188 C-50.54122615 3.65593974 -27.8690635 -0.03797714 0 0 Z " fill="#FDFCFD" transform="translate(405.22509765625,314.580078125)"/>
<path d="M0 0 C0.89902092 -0.00445784 1.79804183 -0.00891569 2.72430581 -0.01350862 C3.70289412 -0.01332426 4.68148242 -0.01313989 5.68972492 -0.01294994 C6.73641434 -0.01662663 7.78310377 -0.02030332 8.86151105 -0.02409142 C12.37426638 -0.03511819 15.88699212 -0.0389704 19.39976215 -0.04278088 C21.91626295 -0.04904623 24.43276281 -0.05569309 26.94926167 -0.0626936 C34.50383269 -0.08191005 42.05839851 -0.09251954 49.61298773 -0.10142139 C53.17359486 -0.1058088 56.73420051 -0.11117437 60.29480648 -0.11641026 C72.13569518 -0.13341824 83.97658296 -0.14791203 95.81748199 -0.155159 C98.88804024 -0.15706877 101.95859847 -0.15898913 105.02915668 -0.16094494 C106.17386276 -0.16167055 106.17386276 -0.16167055 107.34169421 -0.16241082 C119.70189889 -0.17070982 132.06200676 -0.19604643 144.42216917 -0.22852562 C157.12145705 -0.26162307 169.82069576 -0.27961012 182.52002698 -0.28280324 C189.64648021 -0.28496568 196.77279219 -0.29367552 203.8992033 -0.31926441 C210.60430127 -0.34328551 217.30910145 -0.34678031 224.01424885 -0.33650303 C226.47243628 -0.33600745 228.9306362 -0.34233421 231.38878536 -0.35605907 C234.75063261 -0.3737765 238.11156801 -0.36667162 241.47341633 -0.35352612 C242.44085103 -0.36449536 243.40828573 -0.37546461 244.40503663 -0.38676625 C254.93250389 -0.28772113 262.61959553 3.42348482 270.19590473 10.61859608 C275.90724556 17.14005617 278.51897738 24.34239055 278.53947163 32.91278553 C278.54392831 33.95241979 278.54392831 33.95241979 278.54847503 35.01305676 C278.55716337 37.34121744 278.55867042 39.66932671 278.56016254 41.99750233 C278.56479083 43.66480589 278.56981551 45.3321084 278.57520771 46.99940968 C278.58833764 51.53494953 278.59477849 56.07047457 278.59921837 60.60603046 C278.60214975 63.44190641 278.60625482 66.27777832 278.61072254 69.11365223 C278.6244026 77.99248581 278.63406525 86.87131015 278.63792443 95.75015354 C278.64239854 105.98706346 278.65991417 116.22383942 278.68892503 126.46070862 C278.71058365 134.3793496 278.72063104 142.29795303 278.72196555 150.21662331 C278.72301112 154.94259572 278.72886521 159.6684423 278.74678516 164.39438343 C278.76333691 168.84641209 278.76538707 173.29822131 278.75664616 177.75026989 C278.75587941 179.37756598 278.76017022 181.00487421 278.77010441 182.63214016 C278.84205619 195.16098903 278.40351846 206.56315778 269.39902973 216.13422108 C261.67856849 223.79304191 254.88360725 227.25339269 243.92922688 227.26552296 C242.6213068 227.26953114 241.31338673 227.27353931 239.96583271 227.27766895 C238.52323625 227.27719391 237.08063982 227.27665781 235.6380434 227.27606678 C234.11335875 227.2791001 232.588675 227.28262203 231.0639925 227.28659534 C227.78410651 227.2944715 224.50423133 227.29962442 221.22433758 227.30288601 C216.03394352 227.30880771 210.84361762 227.32535903 205.65325642 227.34422779 C203.87456898 227.35056482 202.0958815 227.35689045 200.31719398 227.36320496 C198.98121459 227.36795367 198.98121459 227.36795367 197.61824572 227.37279832 C185.53826842 227.41483647 173.45832338 227.44784933 161.37827778 227.46014881 C153.22460948 227.46853577 145.07111057 227.49104833 136.91752702 227.52950448 C132.60581895 227.54924061 128.29436396 227.56167778 123.98260784 227.55667019 C119.92522964 227.55201518 115.86833103 227.56587527 111.81104946 227.59368229 C110.32603117 227.60057925 108.84096313 227.60073673 107.35594654 227.59348202 C95.27382477 227.54043984 88.51727457 229.75711284 79.58652973 237.82172108 C78.36088213 238.90088605 77.13431068 239.97900264 75.90684223 241.05609608 C75.01207172 241.84596912 75.01207172 241.84596912 74.09922504 242.6517992 C71.76744699 244.68490609 69.37006846 246.63051076 66.96152973 248.57172108 C62.50302727 252.18850036 58.16166927 255.92293578 53.83652973 259.69672108 C37.27217015 274.13422108 37.27217015 274.13422108 35.39902973 274.13422108 C35.39492085 273.17644764 35.39081196 272.2186742 35.38657856 271.23187733 C35.3646477 267.6455706 35.31021767 264.06033947 35.24644184 260.47455311 C35.22338234 258.92876031 35.20889461 257.38281308 35.20347309 255.8368578 C35.39353052 243.50080328 35.39353052 243.50080328 29.39902973 233.13422108 C24.12971672 228.94027807 20.26386789 228.03191254 13.67246723 227.95843983 C12.55742817 227.93459217 11.44238911 227.91074451 10.29356098 227.8861742 C7.97082357 227.84363795 5.64785405 227.8121556 3.32481098 227.7924242 C-6.94570348 227.53890404 -15.19206971 225.37028477 -22.78065777 218.18109608 C-32.57393466 207.16891347 -32.89991302 195.2813409 -32.85975933 181.24823475 C-32.86247333 179.65063283 -32.86603655 178.05303217 -32.87037945 176.45543385 C-32.87945931 172.13708548 -32.87597684 167.81883321 -32.86962128 163.50048327 C-32.86453578 158.96573976 -32.86926004 154.43100412 -32.87239361 149.89626026 C-32.87602695 142.27952069 -32.87125191 134.66281997 -32.86171246 127.04608631 C-32.85084086 118.26481797 -32.85434662 109.48364261 -32.86536527 100.70237654 C-32.87447019 93.14112787 -32.87570745 85.57990703 -32.87048793 78.01865464 C-32.86738429 73.51242954 -32.86691417 69.00624798 -32.87356091 64.50002575 C-32.8793801 60.25887659 -32.87525464 56.01784604 -32.86377239 51.77670956 C-32.86114958 50.22885172 -32.86184967 48.68098374 -32.86629772 47.13313007 C-32.93748799 19.82099698 -32.93748799 19.82099698 -23.47597027 9.44672108 C-16.94233511 3.2932759 -8.94382083 0.02068393 0 0 Z " fill="#FDFCFD" transform="translate(498.6009702682495,514.8657789230347)"/>
<path d="M0 0 C0.89814423 -0.00525696 1.79628845 -0.01051392 2.72164917 -0.01593018 C5.69416661 -0.02914305 8.66614884 -0.02038151 11.63867188 -0.01025391 C13.71171165 -0.01227569 15.78475074 -0.01518799 17.85778809 -0.01895142 C22.20897168 -0.0233777 26.55997068 -0.01693911 30.91113281 -0.00292969 C36.46119324 0.01407703 42.01081569 0.00437713 47.56085968 -0.01364708 C51.84711939 -0.02454968 56.13327743 -0.02100756 60.41954041 -0.0132637 C62.46386264 -0.0112751 64.50819438 -0.01367338 66.55250549 -0.02070236 C85.73192318 -0.07213104 101.15268826 1.86356917 115.56445312 15.66552734 C126.23202102 27.08687116 130.87676621 40.92073505 130.63110352 56.32177734 C129.90524309 72.87072454 123.98703584 86.57485721 111.95507812 97.94287109 C103.81788146 104.93036782 95.48376942 107.91762465 85.10742188 110.38818359 C84.39344238 110.56687988 83.67946289 110.74557617 82.94384766 110.9296875 C79.13455641 111.54544313 75.37197369 111.51117835 71.52539062 111.48583984 C70.30412224 111.48371742 70.30412224 111.48371742 69.05818176 111.48155212 C66.47039032 111.47597676 63.88268696 111.46342884 61.29492188 111.45068359 C59.5351575 111.44566541 57.77539177 111.44110306 56.015625 111.43701172 C51.71282979 111.4268684 47.41022387 111.40728829 43.10742188 111.38818359 C43.10742188 121.94818359 43.10742188 132.50818359 43.10742188 143.38818359 C46.40742187 144.37818359 49.70742188 145.36818359 53.10742188 146.38818359 C56.86685057 148.50713431 60.19075131 150.44836076 62.10742188 154.38818359 C62.63338622 157.49721727 62.71539684 160.28751129 62.10742188 163.38818359 C59.92583042 166.14387806 58.23564694 167.82407106 55.10742188 169.38818359 C53.10197826 169.49500812 51.09296603 169.5370451 49.0847168 169.54931641 C47.81967819 169.55892395 46.55463959 169.56853149 45.25126648 169.57843018 C43.86347636 169.58327846 42.47568415 169.58755721 41.08789062 169.59130859 C39.6678314 169.59706073 38.24777219 169.60281846 36.82771301 169.60858154 C33.84762205 169.61909285 30.86755807 169.62493436 27.88745117 169.62841797 C24.07419264 169.63389693 20.26129223 169.65791119 16.44814587 169.68638992 C13.51327993 169.70504327 10.57849969 169.71022337 7.64357948 169.71175385 C6.23819335 169.71477585 4.83280856 169.72278918 3.4274807 169.73593903 C1.45782951 169.75305061 -0.5119694 169.74926708 -2.48168945 169.74462891 C-4.16141594 169.75009735 -4.16141594 169.75009735 -5.87507629 169.75567627 C-9.27696269 169.34137053 -11.14590391 168.4010846 -13.89257812 166.38818359 C-16.60649758 162.3461759 -16.63518334 158.08862979 -15.89257812 153.38818359 C-13.71468925 149.18796933 -12.43176624 147.93581926 -7.99414062 146.35693359 C-3.92046101 145.29166144 -0.11311461 144.38818359 4.10742188 144.38818359 C4.10742188 106.10818359 4.10742188 67.82818359 4.10742188 28.38818359 C2.12742187 28.05818359 0.14742187 27.72818359 -1.89257812 27.38818359 C-4.56054688 26.30224609 -4.56054688 26.30224609 -7.08007812 25.01318359 C-7.91925781 24.59294922 -8.7584375 24.17271484 -9.62304688 23.73974609 C-13.10599675 21.66556252 -14.59997385 20.26599641 -15.89257812 16.38818359 C-16.2378908 11.03583717 -16.36832398 7.73286591 -12.89257812 3.38818359 C-9.19717035 -0.44725014 -4.99306548 -0.03585204 0 0 Z " fill="#5028D3" transform="translate(572.892578125,545.61181640625)"/>
<path d="M0 0 C13.4465925 6.82424664 21.96358105 16.92607979 26.9140625 31.0703125 C29.70106152 44.3353559 27.11705175 57.1132464 20.3828125 68.68359375 C13.4534046 78.94094098 3.50835949 85.14612416 -8.3984375 88.3203125 C-23.54209968 89.86334234 -36.6199858 88.15057082 -48.859375 78.57421875 C-58.0899613 70.3802983 -63.95676754 60.70984627 -64.875 48.2421875 C-65.45333376 34.3020906 -63.06555909 22.87027625 -53.3984375 12.3203125 C-39.54584064 -2.19455991 -18.97781584 -7.64458497 0 0 Z " fill="#5128D4" transform="translate(633.3984375,370.6796875)"/>
<path d="M0 0 C0.85851562 0.42410156 1.71703125 0.84820312 2.6015625 1.28515625 C13.47537518 7.18198216 20.18674264 16.33335232 23.96875 27.984375 C27.82777497 42.06266979 25.64980272 54.27294451 18.78515625 67.17578125 C12.19281289 77.6052435 1.96092318 84.27099183 -10 87 C-23.91831727 88.40611141 -35.60002341 87.2841931 -47.3125 79.1875 C-56.74054112 71.47719722 -64.57537773 60.37640601 -66 48 C-67.18848969 34.1095267 -63.67686343 21.97015673 -55 11 C-41.00553923 -3.96665366 -18.75604039 -9.74221516 0 0 Z " fill="#5129D4" transform="translate(429,372)"/>
<path d="M0 0 C30.95991091 0 30.95991091 0 40 9 C45.63447689 15.04575257 45.69873885 22.17544054 45.58984375 30.03857422 C45.24551802 37.55585794 43.65029767 42.43699205 38.203125 47.75390625 C26.86667086 57.16316319 14.65757178 55 0 55 C0 36.85 0 18.7 0 0 Z " fill="#FCFBFD" transform="translate(616,574)"/>
<path d="M0 0 C0.66 0.33 1.32 0.66 2 1 C1.40832031 1.58007812 0.81664062 2.16015625 0.20703125 2.7578125 C-4.09851719 7.01419481 -8.23200869 11.25962383 -12 16 C-12.66 15.67 -13.32 15.34 -14 15 C-12.23000902 13.06172464 -10.45904239 11.12435656 -8.6875 9.1875 C-8.18798828 8.64029297 -7.68847656 8.09308594 -7.17382812 7.52929688 C-4.83056872 4.96878163 -2.48855146 2.42060466 0 0 Z " fill="#3511CD" transform="translate(283,638)"/>
<path d="M0 0 C0.66 0.33 1.32 0.66 2 1 C-2.75 4 -2.75 4 -5 4 C-5.66 5.32 -6.32 6.64 -7 8 C-7.66 7.67 -8.32 7.34 -9 7 C-9 6.34 -9 5.68 -9 5 C-7.54735962 4.1361871 -6.0876837 3.28419546 -4.625 2.4375 C-3.40683594 1.72400391 -3.40683594 1.72400391 -2.1640625 0.99609375 C-1.44992187 0.66738281 -0.73578125 0.33867187 0 0 Z " fill="#3C1AD0" transform="translate(336,296)"/>
<path d="M0 0 C-0.66 0 -1.32 0 -2 0 C-2 0.66 -2 1.32 -2 2 C-4.97 2.66 -7.94 3.32 -11 4 C-11 3.34 -11 2.68 -11 2 C-9.73392393 1.46770674 -8.46189588 0.94955456 -7.1875 0.4375 C-6.47980469 0.14746094 -5.77210938 -0.14257812 -5.04296875 -0.44140625 C-3 -1 -3 -1 0 0 Z " fill="#3B19CF" transform="translate(352,291)"/>
</svg>
